<?xml version="1.0" encoding="UTF-8" standalone="no" ?>
<COLLADA xmlns="http://www.collada.org/2005/11/COLLADASchema" version="1.4.1">
  <asset>
    <contributor>
      <author>Assimp</author>
      <authoring_tool>Blender (stable FBX IO) - 5.1.0 - 5.15.0</authoring_tool>
    </contributor>
    <created>2026-03-24T02:06:18</created>
    <modified>2026-03-24T02:06:18</modified>
    <unit name="meter" meter="1" />
    <up_axis>Z_UP</up_axis>
  </asset>
  <library_cameras>
    <camera id="Camera-camera" name="Camera" >
      <optics>
        <technique_common>
          <perspective>
            <xfov sid="xfov">39.597755</xfov>
            <aspect_ratio>1.7777778</aspect_ratio>
            <znear sid="znear">10</znear>
            <zfar sid="zfar">10000</zfar>
          </perspective>
        </technique_common>
      </optics>
    </camera>
  </library_cameras>
  <library_lights>
    <light id="Light-light" name="Light" >
      <technique_common>
        <point>
          <color sid="color">1000 1000 1000</color>
          <constant_attenuation>0</constant_attenuation>
          <linear_attenuation>0</linear_attenuation>
          <quadratic_attenuation>3.2e-07</quadratic_attenuation>
        </point>
      </technique_common>
    </light>
  </library_lights>
  <library_effects>
    <effect id="Material-fx" name="Material">
      <profile_COMMON>
        <technique sid="standard">
          <phong>
            <emission>
              <color sid="emission">0   0   0   1</color>
            </emission>
            <ambient>
              <color sid="ambient">0   0   0   1</color>
            </ambient>
            <diffuse>
              <color sid="diffuse">0.80000001   0.80000001   0.80000001   1</color>
            </diffuse>
            <specular>
              <color sid="specular">0.80000001   0.80000001   0.80000001   1</color>
            </specular>
            <shininess>
              <float sid="shininess">25</float>
            </shininess>
            <reflective>
              <color sid="reflective">0.80000001   0.80000001   0.80000001   1</color>
            </reflective>
            <transparent>
              <color sid="transparent">0   0   0   1</color>
            </transparent>
            <transparency>
              <float sid="transparency">1</float>
            </transparency>
          </phong>
        </technique>
      </profile_COMMON>
    </effect>
  </library_effects>
  <library_materials>
    <material id="Material" name="Material">
      <instance_effect url="#Material-fx"/>
    </material>
  </library_materials>
  <library_geometries>
    <geometry id="Cube" name="Cube" >
      <mesh>
        <source id="Cube-positions" name="Cube-positions">
          <float_array id="Cube-positions-array" count="396"> 0.45719996 -0.3048 0.076200001 0.30479997 0.15239999 0.076200001 0.30479997 -0.15239999 0.076200001 -0.45720008 0.3048 0.076200001 -0.45720008 -0.3048 0.076200001 -0.30479997 0.15239999 0.076200001 -0.30479997 0.15239999 0.076200001 -0.30479997 -0.15239999 -0.076200001 -0.30479997 0.15239999 -0.076200001 0.30479997 0.15239999 0.076200001 -0.30479997 0.15239999 -0.076200001 0.30479997 0.15239999 -0.076200001 0.30479997 0.15239999 0.076200001 0.30479997 -0.15239999 -0.076200001 0.30479997 -0.15239999 0.076200001 0.30479997 -0.15239999 0.076200001 -0.30479997 -0.15239999 -0.076200001 -0.30479997 -0.15239999 0.076200001 -0.30479997 0.15239999 -0.076200001 0.30479997 -0.15239999 -0.076200001 0.30479997 0.15239999 -0.076200001 0.30483013 0.15243013 0.076109551 0.45719996 -0.3048 0.076099999 0.30483013 -0.15243013 0.076109551 -0.3048577 -0.15245773 0.076142266 -0.45720008 -0.3048 0.076099999 -0.45720008 0.3048 0.076099999 -0.3048577 -0.15245773 -0.076257735 -0.3048577 0.15245773 0.076142266 -0.3048577 0.15245773 -0.076257735 -0.3048577 0.15245773 -0.076257735 0.30483013 0.15243013 0.076109551 0.3048577 0.15245773 -0.076257735 0.3048577 -0.15245773 -0.076257735 0.30483013 0.15243013 0.076109551 0.30483013 -0.15243013 0.076109551 -0.3048577 -0.15245773 -0.076257735 0.30483013 -0.15243013 0.076109551 -0.3048577 -0.15245773 0.076142266 0.3048577 -0.15245773 -0.076257735 -0.3048577 0.15245773 -0.076257735 0.3048577 0.15245773 -0.076257735 0.45719996 -0.3048 0.076200001 0.45719996 0.3048 0.076099999 0.45719996 0.3048 0.076200001 0.45719996 0.3048 0.076200001 -0.45720008 0.3048 0.076099999 -0.45720008 0.3048 0.076200001 -0.45720008 0.3048 0.076200001 -0.45720008 -0.3048 0.076099999 -0.45720008 -0.3048 0.076200001 -0.45720008 -0.3048 0.076200001 0.45719996 -0.3048 0.076099999 0.45719996 -0.3048 0.076200001 0.45719996 -0.3048 0.076200001 0.45719996 0.3048 0.076200001 0.30479997 0.15239999 0.076200001 -0.30479997 0.15239999 0.076200001 0.30479997 0.15239999 0.076200001 0.45719996 0.3048 0.076200001 -0.45720008 -0.3048 0.076200001 0.45719996 -0.3048 0.076200001 -0.30479997 -0.15239999 0.076200001 0.45719996 -0.3048 0.076200001 0.30479997 -0.15239999 0.076200001 -0.30479997 -0.15239999 0.076200001 -0.30479997 0.15239999 0.076200001 0.45719996 0.3048 0.076200001 -0.45720008 0.3048 0.076200001 -0.45720008 -0.3048 0.076200001 -0.30479997 -0.15239999 0.076200001 -0.30479997 0.15239999 0.076200001 -0.30479997 0.15239999 0.076200001 -0.30479997 -0.15239999 0.076200001 -0.30479997 -0.15239999 -0.076200001 0.30479997 0.15239999 0.076200001 -0.30479997 0.15239999 0.076200001 -0.30479997 0.15239999 -0.076200001 0.30479997 0.15239999 0.076200001 0.30479997 0.15239999 -0.076200001 0.30479997 -0.15239999 -0.076200001 0.30479997 -0.15239999 0.076200001 0.30479997 -0.15239999 -0.076200001 -0.30479997 -0.15239999 -0.076200001 -0.30479997 0.15239999 -0.076200001 -0.30479997 -0.15239999 -0.076200001 0.30479997 -0.15239999 -0.076200001 0.30483013 0.15243013 0.076109551 0.45719996 0.3048 0.076099999 0.45719996 -0.3048 0.076099999 0.45719996 0.3048 0.076099999 0.30483013 0.15243013 0.076109551 -0.3048577 0.15245773 0.076142266 -0.3048577 -0.15245773 0.076142266 0.30483013 -0.15243013 0.076109551 0.45719996 -0.3048 0.076099999 -0.45720008 0.3048 0.076099999 0.45719996 0.3048 0.076099999 -0.3048577 0.15245773 0.076142266 -0.3048577 -0.15245773 0.076142266 0.45719996 -0.3048 0.076099999 -0.45720008 -0.3048 0.076099999 -0.45720008 0.3048 0.076099999 -0.3048577 0.15245773 0.076142266 -0.3048577 -0.15245773 0.076142266 -0.3048577 -0.15245773 -0.076257735 -0.3048577 -0.15245773 0.076142266 -0.3048577 0.15245773 0.076142266 -0.3048577 0.15245773 -0.076257735 -0.3048577 0.15245773 0.076142266 0.30483013 0.15243013 0.076109551 0.3048577 -0.15245773 -0.076257735 0.3048577 0.15245773 -0.076257735 0.30483013 0.15243013 0.076109551 -0.3048577 -0.15245773 -0.076257735 0.3048577 -0.15245773 -0.076257735 0.30483013 -0.15243013 0.076109551 0.3048577 -0.15245773 -0.076257735 -0.3048577 -0.15245773 -0.076257735 -0.3048577 0.15245773 -0.076257735 0.45719996 -0.3048 0.076200001 0.45719996 -0.3048 0.076099999 0.45719996 0.3048 0.076099999 0.45719996 0.3048 0.076200001 0.45719996 0.3048 0.076099999 -0.45720008 0.3048 0.076099999 -0.45720008 0.3048 0.076200001 -0.45720008 0.3048 0.076099999 -0.45720008 -0.3048 0.076099999 -0.45720008 -0.3048 0.076200001 -0.45720008 -0.3048 0.076099999 0.45719996 -0.3048 0.076099999 </float_array>
          <technique_common>
            <accessor count="132" offset="0" source="#Cube-positions-array" stride="3">
              <param name="X" type="float" />
              <param name="Y" type="float" />
              <param name="Z" type="float" />
            </accessor>
          </technique_common>
        </source>
        <vertices id="Cube-vertices">
          <input semantic="POSITION" source="#Cube-positions" />
        </vertices>
        <polylist count="44" material="defaultMaterial">
          <input offset="0" semantic="VERTEX" source="#Cube-vertices" />
          <vcount>3 3 3 3 3 3 3 3 3 3 3 3 3 3 3 3 3 3 3 3 3 3 3 3 3 3 3 3 3 3 3 3 3 3 3 3 3 3 3 3 3 3 3 3 </vcount>
          <p>0 1 2 3 4 5 6 7 8 9 10 11 12 13 14 15 16 17 18 19 20 21 22 23 24 25 26 27 28 29 30 31 32 33 34 35 36 37 38 39 40 41 42 43 44 45 46 47 48 49 50 51 52 53 54 55 56 57 58 59 60 61 62 63 64 65 66 67 68 69 70 71 72 73 74 75 76 77 78 79 80 81 82 83 84 85 86 87 88 89 90 91 92 93 94 95 96 97 98 99 100 101 102 103 104 105 106 107 108 109 110 111 112 113 114 115 116 117 118 119 120 121 122 123 124 125 126 127 128 129 130 131 </p>
        </polylist>
      </mesh>
    </geometry>
  </library_geometries>
  <library_controllers>
  </library_controllers>
  <library_visual_scenes>
    <visual_scene id="RootNode" name="RootNode">
      <node id="Camera"  name="Camera" type="NODE">
        <matrix sid="matrix">-68.592087 -32.401348 -65.1558 735.88916 -1.7881392e-05 89.539574 -44.527134 495.83093 72.767609 -30.542082 -61.417068 692.5791 0 0 0 1</matrix>
        <instance_camera url="#Camera-camera"/>
      </node>
      <node id="Cube"  name="Cube" type="NODE">
        <matrix sid="matrix">1 0 0 0 0 1 0 0 0 0 1 0 0 0 0 1</matrix>
        <instance_geometry url="#Cube">
          <bind_material>
            <technique_common>
              <instance_material symbol="defaultMaterial" target="#Material">
              </instance_material>
            </technique_common>
          </bind_material>
        </instance_geometry>
      </node>
      <node id="Light"  name="Light" type="NODE">
        <matrix sid="matrix">-29.086468 56.639324 77.110085 407.62454 -5.5189033 79.467232 -60.452473 590.38623 -95.51712 -21.839117 -19.988337 -100.54539 0 0 0 1</matrix>
        <instance_light url="#Light-light"/>
      </node>
    </visual_scene>
  </library_visual_scenes>
  <scene>
    <instance_visual_scene url="#RootNode" />
  </scene>
</COLLADA>
